<?xml version="1.0" encoding="utf-8"?>
<!-- Generator: Adobe Illustrator 16.0.0, SVG Export Plug-In . SVG Version: 6.00 Build 0)  -->
<!DOCTYPE svg PUBLIC "-//W3C//DTD SVG 1.1//EN" "http://www.w3.org/Graphics/SVG/1.1/DTD/svg11.dtd">
<svg version="1.1" id="Capa_1" xmlns="http://www.w3.org/2000/svg" xmlns:xlink="http://www.w3.org/1999/xlink" x="0px" y="0px"
	 width="205px" height="180.079px" viewBox="0 0 205 180.079" enable-background="new 0 0 205 180.079" xml:space="preserve">
<g>
	<circle fill="#FFFFFF" cx="102.495" cy="89.923" r="74.14"/>
	<g>
		<path fill="#C39870" d="M102.496,138.467c-26.767,0-48.543-21.775-48.543-48.544c0-26.77,21.776-48.546,48.543-48.546
			c26.766,0,48.542,21.776,48.542,48.546C151.038,116.691,129.262,138.467,102.496,138.467z M102.496,42.186
			c-26.321,0-47.734,21.415-47.734,47.737c0,26.321,21.413,47.735,47.734,47.735c26.32,0,47.733-21.414,47.733-47.735
			C150.229,63.6,128.816,42.186,102.496,42.186z"/>
	</g>
	<circle fill="none" stroke="#3D3734" stroke-width="2.8663" stroke-miterlimit="10" cx="102.496" cy="89.923" r="51.987"/>
	<path fill="none" d="M63.492,128.928c-21.541-21.541-21.541-56.472,0-78.011c21.542-21.543,56.468-21.543,78.007,0
		c21.544,21.542,21.541,56.47,0,78.011C119.96,150.469,85.033,150.469,63.492,128.928z"/>
	<text transform="matrix(-0.8293 0.5588 -0.5588 -0.8293 134.2793 135.0938)"><tspan x="0" y="0" fill="#C39870" font-family="'BebasNeueRegular'" font-size="10.9741"> </tspan><tspan x="2.258" y="0" fill="#C39870" font-family="'BebasNeueRegular'" font-size="10.9741" rotate="2.331">路</tspan><tspan x="4.448" y="0.086" fill="#C39870" font-family="'BebasNeueRegular'" font-size="10.9741" rotate="4.651"> </tspan><tspan x="6.665" y="0.215" fill="#C39870" font-family="'BebasNeueRegular'" font-size="10.9741" rotate="8.468">L</tspan><tspan x="11.595" y="0.87" fill="#C39870" font-family="'BebasNeueRegular'" font-size="10.9741" rotate="14.899">O</tspan><tspan x="18.693" y="2.798" fill="#C39870" font-family="'BebasNeueRegular'" font-size="10.9741" rotate="21.682">R</tspan><tspan x="24.017" y="4.918" fill="#C39870" font-family="'BebasNeueRegular'" font-size="10.9741" rotate="27.351">E</tspan><tspan x="28.683" y="7.197" fill="#C39870" font-family="'BebasNeueRegular'" font-size="10.9741" rotate="34.467">M</tspan><tspan x="35.726" y="12.214" fill="#C39870" font-family="'BebasNeueRegular'" font-size="10.9741" rotate="40.043"> </tspan><tspan x="37.456" y="13.661" fill="#C39870" font-family="'BebasNeueRegular'" font-size="10.9741" rotate="42.527">I</tspan><tspan x="39.33" y="15.293" fill="#C39870" font-family="'BebasNeueRegular'" font-size="10.9741" rotate="46.764">P</tspan><tspan x="43.203" y="19.414" fill="#C39870" font-family="'BebasNeueRegular'" font-size="10.9741" rotate="52.42">S</tspan><tspan x="46.449" y="23.539" fill="#C39870" font-family="'BebasNeueRegular'" font-size="10.9741" rotate="58.777">U</tspan><tspan x="50.066" y="29.355" fill="#C39870" font-family="'BebasNeueRegular'" font-size="10.9741" rotate="66.827">M</tspan><tspan x="53.33" y="37.366" fill="#C39870" font-family="'BebasNeueRegular'" font-size="10.9741" rotate="72.453"> </tspan><tspan x="54.091" y="39.405" fill="#C39870" font-family="'BebasNeueRegular'" font-size="10.9741" rotate="77.251">D</tspan><tspan x="55.679" y="46.319" fill="#C39870" font-family="'BebasNeueRegular'" font-size="10.9741" rotate="84.639">O</tspan><tspan x="56.312" y="53.653" fill="#C39870" font-family="'BebasNeueRegular'" font-size="10.9741" rotate="91.056">L</tspan><tspan x="56.299" y="58.626" fill="#C39870" font-family="'BebasNeueRegular'" font-size="10.9741" rotate="97.495">O</tspan><tspan x="55.303" y="65.912" fill="#C39870" font-family="'BebasNeueRegular'" font-size="10.9741" rotate="104.31">R</tspan><tspan x="53.811" y="71.512" fill="#C39870" font-family="'BebasNeueRegular'" font-size="10.9741" rotate="108.485"> </tspan><tspan x="53.104" y="73.63" fill="#C39870" font-family="'BebasNeueRegular'" font-size="10.9741" rotate="110.777">路</tspan><tspan x="52.32" y="75.703" fill="#C39870" font-family="'BebasNeueRegular'" font-size="10.9741" rotate="113.104"> </tspan><tspan x="51.494" y="77.768" fill="#C39870" font-family="'BebasNeueRegular'" font-size="10.9741" rotate="116.881">L</tspan><tspan x="49.308" y="82.25" fill="#C39870" font-family="'BebasNeueRegular'" font-size="10.9741" rotate="123.249">O</tspan><tspan x="45.26" y="88.36" fill="#C39870" font-family="'BebasNeueRegular'" font-size="10.9741" rotate="129.957">R</tspan><tspan x="41.579" y="92.748" fill="#C39870" font-family="'BebasNeueRegular'" font-size="10.9741" rotate="135.621">E</tspan><tspan x="37.932" y="96.484" fill="#C39870" font-family="'BebasNeueRegular'" font-size="10.9741" rotate="142.811">M</tspan><tspan x="30.978" y="101.572" fill="#C39870" font-family="'BebasNeueRegular'" font-size="10.9741" rotate="148.424"> </tspan><tspan x="29.055" y="102.761" fill="#C39870" font-family="'BebasNeueRegular'" font-size="10.9741" rotate="150.943">I</tspan><tspan x="26.921" y="104.02" fill="#C39870" font-family="'BebasNeueRegular'" font-size="10.9741" rotate="155.218">P</tspan><tspan x="21.76" y="106.401" fill="#C39870" font-family="'BebasNeueRegular'" font-size="10.9741" rotate="160.919">S</tspan><tspan x="16.853" y="108.157" fill="#C39870" font-family="'BebasNeueRegular'" font-size="10.9741" rotate="167.163">U</tspan><tspan x="10.152" y="109.761" fill="#C39870" font-family="'BebasNeueRegular'" font-size="10.9741" rotate="175.089">M</tspan><tspan x="1.539" y="110.353" fill="#C39870" font-family="'BebasNeueRegular'" font-size="10.9741" rotate="-179.306"> </tspan><tspan x="-0.653" y="110.437" fill="#C39870" font-family="'BebasNeueRegular'" font-size="10.9741" rotate="-174.415">D</tspan><tspan x="-7.696" y="109.772" fill="#C39870" font-family="'BebasNeueRegular'" font-size="10.9741" rotate="-166.895">O</tspan><tspan x="-14.845" y="108.05" fill="#C39870" font-family="'BebasNeueRegular'" font-size="10.9741" rotate="-160.477">L</tspan><tspan x="-19.588" y="106.452" fill="#C39870" font-family="'BebasNeueRegular'" font-size="10.9741" rotate="-154.063">O</tspan><tspan x="-26.166" y="103.211" fill="#C39870" font-family="'BebasNeueRegular'" font-size="10.9741" rotate="-147.35">R</tspan><tspan x="-31.017" y="100.03" fill="#C39870" font-family="'BebasNeueRegular'" font-size="10.9741" rotate="-143.208"> </tspan><tspan x="-32.828" y="98.677" fill="#C39870" font-family="'BebasNeueRegular'" font-size="10.9741" rotate="-140.899">路</tspan><tspan x="-34.512" y="97.312" fill="#C39870" font-family="'BebasNeueRegular'" font-size="10.9741" rotate="-138.631"> </tspan><tspan x="-36.215" y="95.88" fill="#C39870" font-family="'BebasNeueRegular'" font-size="10.9741" rotate="-134.853">L</tspan><tspan x="-39.782" y="92.405" fill="#C39870" font-family="'BebasNeueRegular'" font-size="10.9741" rotate="-128.451">O</tspan><tspan x="-44.339" y="86.606" fill="#C39870" font-family="'BebasNeueRegular'" font-size="10.9741" rotate="-121.62">R</tspan><tspan x="-47.335" y="81.731" fill="#C39870" font-family="'BebasNeueRegular'" font-size="10.9741" rotate="-115.9">E</tspan><tspan x="-49.708" y="77.121" fill="#C39870" font-family="'BebasNeueRegular'" font-size="10.9741" rotate="-108.72">M</tspan><tspan x="-52.338" y="68.895" fill="#C39870" font-family="'BebasNeueRegular'" font-size="10.9741" rotate="-103.155"> </tspan><tspan x="-52.868" y="66.706" fill="#C39870" font-family="'BebasNeueRegular'" font-size="10.9741" rotate="-100.097">I</tspan><tspan x="-53.383" y="64.251" fill="#C39870" font-family="'BebasNeueRegular'" font-size="10.9741" rotate="-96.494">P</tspan><tspan x="-54.021" y="58.634" fill="#C39870" font-family="'BebasNeueRegular'" font-size="10.9741" rotate="-90.853">S</tspan><tspan x="-54.156" y="53.398" fill="#C39870" font-family="'BebasNeueRegular'" font-size="10.9741" rotate="-84.503">U</tspan><tspan x="-53.575" y="46.552" fill="#C39870" font-family="'BebasNeueRegular'" font-size="10.9741" rotate="-76.434">M</tspan><tspan x="-51.404" y="38.197" fill="#C39870" font-family="'BebasNeueRegular'" font-size="10.9741" rotate="-70.822"> </tspan><tspan x="-50.796" y="36.112" fill="#C39870" font-family="'BebasNeueRegular'" font-size="10.9741" rotate="-65.994">D</tspan><tspan x="-47.932" y="29.624" fill="#C39870" font-family="'BebasNeueRegular'" font-size="10.9741" rotate="-58.544">O</tspan><tspan x="-44.047" y="23.378" fill="#C39870" font-family="'BebasNeueRegular'" font-size="10.9741" rotate="-52.18">L</tspan><tspan x="-41.046" y="19.387" fill="#C39870" font-family="'BebasNeueRegular'" font-size="10.9741" rotate="-45.799">O</tspan><tspan x="-35.886" y="14.135" fill="#C39870" font-family="'BebasNeueRegular'" font-size="10.9741" rotate="-39.015">R</tspan><tspan x="-31.372" y="10.553" fill="#C39870" font-family="'BebasNeueRegular'" font-size="10.9741" rotate="-34.872"> </tspan><tspan x="-29.524" y="9.264" fill="#C39870" font-family="'BebasNeueRegular'" font-size="10.9741" rotate="-32.546">路</tspan><tspan x="-27.665" y="8.075" fill="#C39870" font-family="'BebasNeueRegular'" font-size="10.9741" rotate="-30.208"> </tspan></text>
	<circle fill="none" stroke="#3D3734" stroke-width="2.8663" stroke-miterlimit="10" cx="102.496" cy="89.923" r="67.524"/>
	<g>
		<path fill="#C39870" d="M102.496,166.086c-41.997,0-76.163-34.166-76.163-76.163c0-41.999,34.166-76.166,76.163-76.166
			c41.995,0,76.161,34.167,76.161,76.166C178.657,131.92,144.491,166.086,102.496,166.086z M102.496,17.801
			c-39.767,0-72.119,32.352-72.119,72.122c0,39.769,32.353,72.12,72.119,72.12s72.118-32.352,72.118-72.12
			C174.614,50.153,142.263,17.801,102.496,17.801z"/>
	</g>
	<path fill="#3D3734" d="M93.956,102.186c-0.047-0.531-0.06-1.125-0.024-1.689c0.043-0.568,0.124-1.137,0.246-1.701
		c0.255-1.127,0.698-2.221,1.297-3.236c0.602-1.012,1.356-1.955,2.262-2.746c0.896-0.8,1.93-1.464,3.047-1.968
		c1.119-0.5,2.326-0.84,3.564-0.969c0.314-0.029,0.605-0.061,0.943-0.064l0.418-0.012l0.498,0.014
		c0.643,0.031,1.26,0.096,1.883,0.223c1.242,0.242,2.453,0.682,3.582,1.291c1.127,0.613,2.157,1.415,3.053,2.353
		c0.893,0.939,1.657,2.018,2.235,3.197c0.585,1.178,0.988,2.455,1.192,3.768c0.055,0.328,0.088,0.658,0.117,0.988l0.03,0.498
		l0.01,0.473l0.004,0.205l-0.009,0.262c-0.007,0.17-0.01,0.354-0.021,0.518c-0.022,0.322-0.046,0.645-0.091,0.969
		c-0.156,1.287-0.478,2.563-0.964,3.783c-0.479,1.223-1.132,2.387-1.93,3.449c-0.793,1.066-1.74,2.027-2.795,2.852
		c-1.057,0.826-2.227,1.498-3.455,2.016c-1.227,0.518-2.51,0.867-3.799,1.086l-0.132,0.023l-0.187,0.004l-0.292,0.01l-0.237,0.004
		l-0.455-0.002c-0.299-0.006-0.592-0.018-0.883-0.033c-0.582-0.033-1.156-0.092-1.73-0.17c-1.146-0.154-2.287-0.387-3.418-0.715
		c-1.131-0.326-2.25-0.746-3.342-1.275c-1.086-0.537-2.141-1.189-3.125-1.957c-1.975-1.527-3.633-3.57-4.713-5.824
		c-1.082-2.26-1.637-4.662-1.845-6.984c-0.051-0.582-0.088-1.162-0.095-1.736l-0.004-0.432l-0.001-0.287l0.007-0.189l0.011-0.379
		l0.005-0.189l0.015-0.244c0.04-0.674,0.104-1.27,0.2-1.879c0.097-0.609,0.221-1.221,0.387-1.824
		c0.325-1.205,0.771-2.399,1.365-3.499c0.588-1.103,1.287-2.124,2.044-3.052c1.524-1.855,3.257-3.328,4.957-4.621
		c1.703-1.299,3.384-2.439,4.951-3.602c1.561-1.156,3.016-2.324,4.229-3.612c1.213-1.286,2.197-2.676,2.865-4.219
		c0.671-1.539,1.036-3.229,1.145-5.002c0.055-0.887,0.049-1.791-0.02-2.707l-0.023-0.336l-0.033-0.379l-0.071-0.703
		c-0.052-0.477-0.111-0.945-0.182-1.412c-0.275-1.854-0.7-3.695-1.38-5.137c-0.325-0.707-0.77-1.293-1.033-1.473
		c-0.129-0.09-0.153-0.09-0.155-0.098c0-0.008-0.06-0.018-0.226,0.063c-0.334,0.156-0.866,0.676-1.289,1.324
		c-0.438,0.654-0.816,1.436-1.135,2.26c-0.636,1.658-1.035,3.496-1.26,5.361c-0.439,3.748-0.199,7.639,0.521,11.438
		c0.094,0.475,0.191,0.95,0.299,1.424l0.332,1.475l0.676,2.965c0.449,1.979,0.895,3.965,1.322,5.955
		c0.857,3.983,1.65,7.99,2.307,12.025c0.645,4.041,1.158,8.113,1.379,12.232c0.105,2.059,0.136,4.131,0.025,6.213
		c-0.113,2.078-0.355,4.174-0.906,6.246c-0.279,1.033-0.639,2.063-1.135,3.049c-0.494,0.986-1.138,1.934-1.966,2.734
		c-0.828,0.799-1.851,1.422-2.943,1.775c-0.544,0.178-1.103,0.293-1.66,0.359c-0.14,0.02-0.278,0.027-0.417,0.039l-0.213,0.014
		l-0.19,0.008c-0.247,0.014-0.511,0.02-0.785,0.023c-2.119,0.02-4.285-0.299-6.263-1.188c-1.981-0.869-3.677-2.336-4.882-4.076
		c-1.218-1.74-2.006-3.699-2.561-5.682c-0.564-1.982-0.845-4.025-1.199-5.992l0.624-0.139c0.458,1.998,0.822,3.967,1.458,5.861
		c0.623,1.889,1.464,3.703,2.649,5.236c1.179,1.535,2.724,2.736,4.486,3.434c1.76,0.711,3.709,0.924,5.63,0.828
		c1.005-0.047,1.885-0.146,2.716-0.465c0.825-0.309,1.556-0.797,2.16-1.43c1.216-1.275,1.919-3.07,2.336-4.924
		c0.417-1.867,0.567-3.828,0.594-5.795c0.021-1.969-0.089-3.953-0.274-5.934c-0.375-3.965-1.044-7.922-1.832-11.857
		c-0.785-3.938-1.708-7.854-2.695-11.766c-0.494-1.955-1.005-3.908-1.523-5.863l-0.78-2.938l-0.389-1.477
		c-0.132-0.512-0.256-1.026-0.372-1.542c-0.922-4.129-1.324-8.415-0.922-12.735c0.207-2.16,0.605-4.328,1.364-6.477
		c0.385-1.074,0.856-2.145,1.516-3.197c0.334-0.525,0.711-1.047,1.181-1.553c0.47-0.502,1.028-0.996,1.758-1.404
		c0.721-0.402,1.668-0.713,2.685-0.67c1.017,0.027,1.972,0.418,2.674,0.898c0.711,0.484,1.227,1.045,1.649,1.594
		c0.423,0.555,0.751,1.113,1.031,1.664c0.562,1.105,0.943,2.197,1.254,3.279c0.31,1.082,0.539,2.154,0.726,3.223
		c0.093,0.533,0.175,1.066,0.246,1.596l0.103,0.807l0.045,0.377l0.04,0.42c0.115,1.102,0.163,2.227,0.13,3.365
		c-0.06,2.272-0.471,4.62-1.342,6.831c-0.85,2.221-2.168,4.243-3.666,5.962c-1.501,1.727-3.165,3.176-4.799,4.504
		c-1.634,1.324-3.254,2.535-4.72,3.764c-1.467,1.229-2.777,2.474-3.79,3.786c-1.004,1.319-1.688,2.698-2.063,4.202
		c-0.098,0.375-0.167,0.76-0.223,1.15c-0.058,0.393-0.091,0.807-0.107,1.143l-0.01,0.137l-0.002,0.189l-0.006,0.381l-0.002,0.189
		c0.002-0.129,0.002-0.012,0.002-0.029l0,0.041l0.003,0.082l0.008,0.328c0.014,0.438,0.032,0.871,0.07,1.297
		c0.142,1.709,0.531,3.316,1.193,4.719c0.648,1.41,1.569,2.629,2.772,3.617c1.199,0.988,2.663,1.76,4.273,2.307
		c0.805,0.271,1.646,0.48,2.502,0.635c0.428,0.078,0.859,0.137,1.285,0.186c0.215,0.025,0.427,0.045,0.636,0.061l0.534,0.027
		l-0.318,0.029c0.863-0.102,1.704-0.287,2.5-0.572c0.795-0.289,1.548-0.67,2.241-1.141c0.692-0.473,1.327-1.035,1.874-1.684
		c0.553-0.643,1.021-1.369,1.396-2.146c0.38-0.777,0.658-1.611,0.827-2.475c0.047-0.215,0.077-0.434,0.109-0.65l0.037-0.299
		l0.017-0.145l0.013-0.203l0.012-0.203l0.006-0.102l0.004-0.053c0,0.102,0,0.023,0,0.043v-0.01v-0.02l0.011-0.318
		c0.001-0.213,0.003-0.426-0.013-0.639c-0.049-0.848-0.226-1.695-0.535-2.502c-0.304-0.809-0.742-1.578-1.285-2.27
		c-0.543-0.697-1.205-1.303-1.932-1.83c-0.735-0.514-1.552-0.928-2.423-1.205c-0.432-0.145-0.895-0.242-1.335-0.318l-0.313-0.049
		l-0.401-0.035c-0.202-0.023-0.457-0.027-0.685-0.033c-0.936,0-1.882,0.113-2.799,0.385c-0.915,0.27-1.806,0.678-2.616,1.227
		c-0.814,0.545-1.563,1.211-2.203,1.986c-0.643,0.771-1.158,1.658-1.56,2.607c-0.194,0.477-0.356,0.971-0.485,1.477
		c-0.12,0.514-0.209,1.008-0.268,1.564L93.956,102.186z"/>
	<g>
		<g>
			<path fill="#3D3734" d="M200.96,131.268c-62.363,29.346-134.565,29.346-196.928,0c5.154-3.278,10.132-6.716,14.928-10.299
				c-0.8-5.933-1.381-11.843-1.744-17.717c54.013,25.417,116.548,25.417,170.561,0c-0.364,5.874-0.945,11.784-1.745,17.717
				C190.827,124.553,195.806,127.99,200.96,131.268z"/>
			<g>
				<path fill="#C39870" d="M59.836,134.583c0.241-1.724,0.535-3.794,0.861-5.312c-0.02-0.004-0.04-0.008-0.059-0.012
					c-0.742,1.34-1.609,2.746-2.646,4.284c-1.212,1.804-2.446,3.598-3.702,5.382c-0.454-0.102-0.907-0.203-1.36-0.308
					c-0.308-2.099-0.595-4.196-0.861-6.293c-0.231-1.86-0.381-3.553-0.397-5.08c-0.013-0.003-0.026-0.006-0.039-0.009
					c-0.413,1.496-1.014,3.498-1.585,5.28c-0.551,1.697-1.104,3.394-1.661,5.089c-0.568-0.143-1.136-0.288-1.703-0.435
					c1.363-3.936,2.709-7.876,4.037-11.821c0.717,0.183,1.434,0.361,2.152,0.535c0.269,2.133,0.561,4.266,0.874,6.399
					c0.214,1.624,0.377,3.063,0.441,4.402c0.02,0.005,0.041,0.01,0.061,0.015c0.623-1.147,1.407-2.374,2.342-3.778
					c1.229-1.787,2.437-3.584,3.622-5.39c0.723,0.148,1.446,0.293,2.17,0.434c-0.52,4.129-1.023,8.26-1.511,12.393
					c-0.587-0.112-1.174-0.227-1.761-0.343C59.351,138.205,59.592,136.394,59.836,134.583z"/>
				<path fill="#C39870" d="M67.536,128.904c-0.409,2.423-0.819,4.846-1.228,7.269c-0.471,2.75,0.719,4.155,2.589,4.442
					c2.077,0.318,3.574-0.713,3.944-3.44c0.335-2.435,0.671-4.869,1.007-7.303c0.578,0.079,1.156,0.156,1.734,0.231
					c-0.311,2.4-0.621,4.801-0.932,7.201c-0.479,3.794-2.963,5.067-6.016,4.598c-2.885-0.444-4.794-2.276-4.108-6.074
					c0.428-2.408,0.855-4.815,1.283-7.224C66.384,128.707,66.96,128.807,67.536,128.904z"/>
				<path fill="#C39870" d="M77.114,140.864c0.757,0.535,1.903,1.035,3.154,1.161c1.856,0.187,3.016-0.59,3.124-1.841
					c0.102-1.161-0.583-1.882-2.376-2.709c-2.173-0.942-3.425-2.156-3.219-3.898c0.231-1.928,2.114-3.149,4.694-2.9
					c1.362,0.13,2.326,0.506,2.895,0.868c-0.194,0.423-0.389,0.846-0.585,1.268c-0.421-0.258-1.284-0.701-2.496-0.817
					c-1.827-0.178-2.631,0.751-2.724,1.598c-0.125,1.155,0.635,1.82,2.458,2.665c2.234,1.026,3.344,2.125,3.202,3.951
					c-0.146,1.912-1.892,3.461-5.231,3.127c-1.363-0.138-2.811-0.654-3.509-1.185C76.706,141.723,76.91,141.294,77.114,140.864z"/>
				<path fill="#C39870" d="M90.033,131.466c-0.247,4.144-0.494,8.288-0.74,12.432c-0.608-0.036-1.217-0.075-1.826-0.116
					c0.281-4.142,0.561-8.283,0.842-12.426C88.884,131.395,89.458,131.432,90.033,131.466z"/>
				<path fill="#C39870" d="M102.381,143.884c-0.67,0.294-2.019,0.587-3.745,0.558c-4.013-0.07-6.912-2.45-6.694-6.525
					c0.21-3.898,3.171-6.374,7.294-6.309c1.664,0.025,2.713,0.356,3.171,0.579c-0.14,0.438-0.279,0.875-0.421,1.312
					c-0.658-0.297-1.595-0.524-2.712-0.541c-3.14-0.049-5.308,1.717-5.451,4.987c-0.132,3.042,1.773,5.098,5.212,5.154
					c1.108,0.018,2.24-0.178,2.971-0.491C102.131,143.033,102.255,143.459,102.381,143.884z"/>
				<path fill="#C39870" d="M108.754,131.742c0.576-0.017,1.151-0.036,1.727-0.059c0.141,3.699,0.281,7.398,0.423,11.098
					c2.004-0.076,4.007-0.18,6.009-0.311c0.029,0.448,0.059,0.897,0.089,1.346c-2.623,0.172-5.249,0.296-7.875,0.375
					C109.002,140.042,108.878,135.893,108.754,131.742z"/>
				<path fill="#C39870" d="M130.274,136.14c0.571,4.248-2.087,6.897-5.708,7.257c-3.747,0.372-6.554-2.004-6.803-5.763
					c-0.261-3.948,2.188-6.698,5.724-7.055C127.104,130.214,129.782,132.473,130.274,136.14z M119.657,137.455
					c0.202,2.65,2.018,4.91,4.884,4.626c2.885-0.292,4.223-2.83,3.875-5.634c-0.306-2.461-2.007-4.846-4.876-4.555
					C120.689,132.175,119.448,134.725,119.657,137.455z"/>
				<path fill="#C39870" d="M144.016,139.814c-0.757,0.408-2.277,1.125-4.172,1.447c-2.122,0.361-3.952,0.154-5.486-0.798
					c-1.353-0.848-2.315-2.397-2.576-4.319c-0.465-3.691,1.889-6.724,6.301-7.479c1.529-0.264,2.779-0.178,3.396-0.03
					c-0.057,0.455-0.113,0.91-0.172,1.366c-0.766-0.159-1.693-0.23-3.035,0c-3.226,0.554-5.074,2.711-4.635,5.806
					c0.444,3.126,2.852,4.677,6.108,4.122c1.178-0.202,1.957-0.493,2.337-0.751c-0.223-1.218-0.444-2.436-0.666-3.653
					c-0.926,0.168-1.853,0.331-2.78,0.487c-0.071-0.425-0.144-0.85-0.215-1.274c1.493-0.253,2.985-0.521,4.474-0.805
					C143.269,135.895,143.643,137.854,144.016,139.814z"/>
				<path fill="#C39870" d="M157.13,130.909c1.104,4.141-1.216,7.11-4.778,7.928c-3.689,0.847-6.782-1.154-7.504-4.852
					c-0.757-3.884,1.335-6.923,4.816-7.727C153.222,125.436,156.177,127.333,157.13,130.909z M146.712,133.566
					c0.535,2.604,2.628,4.615,5.447,3.969c2.84-0.657,3.854-3.348,3.155-6.083c-0.614-2.403-2.61-4.553-5.435-3.897
					C147.074,128.198,146.16,130.885,146.712,133.566z"/>
			</g>
		</g>
	</g>
</g>
</svg>
